Coordinates
version=1
nRows=13
nColumns=36
inDegrees=yes

Units are S.I. units (second, meters, Newtons, ...)
If the header above contains a line with 'inDegrees', this indicates whether rotational values are in degrees (yes) or radians (no).

endheader
time	pelvis_tilt	pelvis_list	pelvis_rotation	pelvis_tx	pelvis_ty	pelvis_tz	hip_flexion_r	hip_adduction_r	hip_rotation_r	knee_angle_r	knee_angle_r_beta	ankle_angle_r	subtalar_angle_r	mtp_angle_r	hip_flexion_l	hip_adduction_l	hip_rotation_l	knee_angle_l	knee_angle_l_beta	ankle_angle_l	subtalar_angle_l	mtp_angle_l	lumbar_extension	lumbar_bending	lumbar_rotation	arm_flex_r	arm_add_r	arm_rot_r	elbow_flex_r	pro_sup_r	arm_flex_l	arm_add_l	arm_rot_l	elbow_flex_l	pro_sup_l
      1.45000000	     -0.92089679	      2.78655120	     -5.83666257	     -0.01572611	      1.25927943	     -0.07977614	     -4.87027779	     -1.08590384	     -2.68343869	      0.18652321	      0.00325544	      5.81333920	     -6.01751450	     -7.49998932	     -4.38454352	     -0.72793972	      0.75121167	      2.60978999	      0.04554943	      1.76907263	     -7.09848399	     -7.49998932	     -8.23626971	      0.21353181	      0.54466160	      7.05571271	     -9.68261853	     42.89071192	     21.92682065	     64.16191399	      8.29884526	     -9.80646198	     49.89118153	     21.24769759	     52.81871300
      1.46666670	     -0.99856579	      2.76271018	     -5.77308192	     -0.01662445	      1.25990078	     -0.07974986	     -4.84177526	     -1.02714434	     -2.76466133	      0.18554921	      0.00323844	      5.83056821	     -6.04382287	     -7.49999290	     -4.33010839	     -0.78880385	      0.88551033	      2.66165134	      0.04645458	      1.83567259	     -7.18328684	     -7.49999290	     -7.95952789	      0.22772400	      0.53115420	      6.84375290	     -9.54078070	     41.67319728	     21.87511284	     65.97018344	      8.14149725	     -9.76700277	     49.65940604	     21.08120740	     52.42581157
      1.48333330	     -1.04454026	      2.77803812	     -5.88395064	     -0.01766627	      1.26190194	     -0.07987256	     -4.78159636	     -1.03666470	     -2.49486576	      0.18573487	      0.00324169	      5.70723639	     -6.25765986	     -7.49999388	     -4.31289710	     -0.78965034	      0.57056609	      2.69131967	      0.04697239	      2.00465349	     -6.80633862	     -7.49999388	     -7.75880956	      0.18401908	      0.68438166	      6.66458269	     -9.44271722	     40.86200005	     21.80053915	     65.35013784	      7.94455385	     -9.65679029	     48.72574787	     20.92351284	     53.04228249
      1.50000000	     -1.07055628	      2.78099667	     -5.78113659	     -0.01815298	      1.26231448	     -0.07964377	     -4.76737154	     -1.02212675	     -2.64232284	      0.18429622	      0.00321658	      5.73969181	     -6.22330916	     -7.49999402	     -4.29394761	     -0.79107525	      1.00781990	      2.65095282	      0.04626785	      1.74220400	     -7.33851430	     -7.49999402	     -7.64082113	      0.17769732	      0.57832891	      6.50185832	     -9.42430428	     40.27428900	     22.02195417	     65.24085317	      7.75747690	     -9.68613902	     48.12554594	     21.00772207	     53.29569263
      1.51666670	     -1.04553313	      2.80492838	     -5.77702636	     -0.01757065	      1.26260112	     -0.07944637	     -4.78640642	     -1.03499889	     -2.51404047	      0.18162553	      0.00316996	      5.62011899	     -6.46182582	     -7.49999472	     -4.31334724	     -0.77552596	      1.06395879	      2.66375460	      0.04649129	      1.83851714	     -7.27970680	     -7.49999472	     -7.60970929	      0.13580080	      0.55399064	      6.37585723	     -9.41349821	     39.60194375	     22.21597031	     65.91481397	      7.65260419	     -9.66773218	     47.63892796	     20.91653715	     53.81994486
      1.53333330	     -1.15593633	      2.79930781	     -5.82972559	     -0.01856625	      1.26134312	     -0.07913548	     -4.62391794	     -1.00746113	     -2.33182363	      0.18068489	      0.00315355	      5.38436748	     -6.80321408	     -7.49999499	     -4.18373759	     -0.79277630	      1.01475669	      2.67764728	      0.04673376	      1.63053589	     -7.48701140	     -7.49999499	     -7.41256676	      0.11443777	      0.70572971	      6.22121635	     -9.39514143	     39.09815532	     22.20756426	     65.70768063	      7.57185727	     -9.64324120	     47.14343144	     20.93708647	     54.05721041
      1.55000000	     -1.17300985	      2.80337858	     -5.74673991	     -0.01923417	      1.26089638	     -0.07927128	     -4.63129690	     -0.97020080	     -2.40332027	      0.18194953	      0.00317562	      5.44216052	     -6.67045061	     -7.49999552	     -4.09932495	     -0.79628718	      1.21839569	      2.69764146	      0.04708273	      1.60790945	     -7.66539612	     -7.49999552	     -7.40516200	      0.05590144	      0.61527420	      6.20058420	     -9.29667025	     38.23888932	     22.20593553	     66.55043309	      7.56692050	     -9.60189413	     46.73081175	     20.71891960	     54.17082962
      1.56666670	     -1.21919920	      2.83295621	     -5.70925070	     -0.01774012	      1.25922327	     -0.07839617	     -4.58611962	     -0.96895870	     -2.48051054	      0.18071922	      0.00315415	      5.43994220	     -6.67249642	     -7.49999508	     -4.02426317	     -0.77548325	      1.28357859	      2.71881615	      0.04745229	      1.62380078	     -7.77888198	     -7.49999508	     -7.28624130	      0.02653563	      0.55595038	      6.03935308	     -9.23531268	     37.55607388	     22.21350859	     66.53821339	      7.41996768	     -9.57093815	     46.14499028	     20.71479659	     54.30677021
      1.58333330	     -1.20427728	      2.83053721	     -5.68957787	     -0.01925267	      1.25816837	     -0.07857053	     -4.64713538	     -0.92326491	     -2.41822755	      0.17999582	      0.00314152	      5.24751829	     -6.92762610	     -7.49999604	     -4.00137878	     -0.79943762	      1.09993856	      2.72258099	      0.04751800	      1.72475675	     -7.61312819	     -7.49999604	     -7.33229139	     -0.01976507	      0.59737503	      5.83792233	     -9.25918728	     36.69685966	     22.49884458	     66.81950336	      7.31853743	     -9.57015079	     45.27995877	     20.80496684	     54.88517852
      1.60000000	     -1.35649155	      2.87397072	     -5.62029589	     -0.01957192	      1.25771250	     -0.07843289	     -4.48034849	     -0.92876447	     -2.56298141	      0.18297516	      0.00319352	      5.34609958	     -6.75704551	     -7.49999807	     -3.77295837	     -0.77436328	      1.23726032	      2.78377796	      0.04858609	      1.65852678	     -7.86249589	     -7.49999807	     -7.14086404	     -0.05199779	      0.59362460	      5.44425432	     -9.05101095	     33.46244798	     22.52581834	     73.57346389	      7.19537451	     -9.51948791	     44.62744122	     20.71679832	     55.71524401
      1.61666670	     -1.47076440	      2.91051904	     -5.54803967	     -0.02032501	      1.25638186	     -0.07837179	     -4.32315475	     -0.91658518	     -2.20845535	      0.18273908	      0.00318940	      5.06697623	     -7.62961835	     -7.49999848	     -3.57961515	     -0.77119484	      1.13918325	      2.84735508	      0.04969572	      1.76667268	     -7.72001967	     -7.49999848	     -7.04684586	     -0.12975260	      0.62069163	      5.23059961	     -9.04627285	     33.04723728	     22.78744714	     71.97575202	      7.06410332	     -9.50472165	     43.60552162	     20.82510663	     56.20202198
      1.63333330	     -1.55093146	      2.94165940	     -5.48081747	     -0.02003712	      1.25787425	     -0.07850170	     -4.21452154	     -0.93507760	     -2.44913368	      0.18644151	      0.00325402	      5.30250072	     -7.15577102	     -7.49999881	     -3.43097121	     -0.74472265	      1.34056592	      2.89122924	      0.05046147	      1.62051234	     -8.19681279	     -7.49999881	     -6.98398847	     -0.18026846	      0.62223500	      5.16781467	     -9.04094047	     32.95971580	     22.68530255	     71.19429706	      6.98152339	     -9.46836238	     42.81164661	     20.88582659	     56.73385387
      1.65000000	     -1.67186879	      2.98219399	     -5.35945996	     -0.02175346	      1.25856880	     -0.07871840	     -4.05555386	     -0.94476450	     -2.46320000	      0.18980202	      0.00331267	      5.38773807	     -7.23838010	     -7.49999900	     -3.20020649	     -0.71117707	      1.52856614	      2.93179054	      0.05116940	      1.59913233	     -8.41957017	     -7.49999900	     -6.92450290	     -0.21288759	      0.53187167	      5.06809660	     -9.02931479	     32.58362183	     22.68018565	     71.41540411	      6.86231586	     -9.44698234	     42.15931429	     20.93132625	     57.03135595
